<!-- Generated by IcoMoon.io -->
<svg version="1.1" xmlns="http://www.w3.org/2000/svg" width="32" height="32" viewBox="0 0 32 32">
<title>chose</title>
<path d="M10.813 2.5q-0.156-0.063-0.344-0.063-0.438-0.031-0.781 0.266t-0.375 0.766l0.031 17.969q-0.063 0.469 0.25 0.813 0.156 0.219 0.406 0.344 0.625 0.25 1.125-0.188l3.188-6.344 4.688 11.563 0.031 0.063q0.156 0.406 0.578 0.578t0.828 0.016l0.563-0.25q0.438-0.188 0.609-0.594t-0.016-0.813l-4.875-11.625 6.688 2.188q0.469-0.063 0.75-0.375 0.281-0.344 0.25-0.797t-0.375-0.734l-12.938-12.594q-0.125-0.094-0.281-0.188v0z"></path>
</svg>
