<!-- Generated by IcoMoon.io -->
<svg version="1.1" xmlns="http://www.w3.org/2000/svg" width="32" height="32" viewBox="0 0 32 32">
<title>circle-oeps</title>
<path d="M16 4.813q2.281 0 4.344 0.875 2.031 0.875 3.563 2.406 1.563 1.563 2.406 3.563 0.875 2.094 0.875 4.375t-0.875 4.344q-0.844 2.031-2.406 3.563-1.563 1.563-3.563 2.406-2.063 0.875-4.344 0.875t-4.375-0.875q-2-0.844-3.563-2.406t-2.406-3.563q-0.875-2.063-0.875-4.344t0.875-4.375q0.875-2 2.406-3.563 1.563-1.563 3.563-2.406 2.094-0.875 4.375-0.875zM16 3.219q-3.5 0-6.438 1.719t-4.656 4.656-1.719 6.422 1.719 6.438 4.656 4.656 6.422 1.703 6.438-1.703 4.656-4.656 1.703-6.438-1.703-6.422-4.656-4.656-6.422-1.719v0z"></path>
</svg>
