<!-- Generated by IcoMoon.io -->
<svg version="1.1" xmlns="http://www.w3.org/2000/svg" width="32" height="32" viewBox="0 0 32 32">
<title>jiantouquxian</title>
<path d="M26.344 19.281q-0.5-0.031-0.875 0.313t-0.406 0.844l-0.094 4.094-0.063 0.063q-4.281-2.531-5.031-3.25-1.281-1.313-2.281-2.828t-1.313-2.219-0.5-1.234q-0.031-0.188-0.125-0.344-1.688-4.656-3.375-6.906-0.75-0.969-2.391-2t-2.781-1.531-2.203-0.906q-0.188-0.094-0.375-0.125l-0.063-0.031h-0.125q-0.5 0-0.844 0.344t-0.344 0.813q0 0.438 0.281 0.766t0.688 0.391q0.156 0.031 0.406 0.094t1 0.344 1.484 0.688 1.75 1.156 1.922 1.719q1.25 1.313 2.813 6 0.031 0.125 0.094 0.219 0.063 0.219 0.219 0.594t0.641 1.375 1 1.859 1.266 1.828 1.469 1.531q1.656 1.219 5 3.25v0l-4.094-0.156q-0.5-0.031-0.875 0.313t-0.391 0.859 0.344 0.891 0.859 0.375l7.031 0.313q0.5 0 0.875-0.344t0.375-0.844l0.219-7.031q0-0.5-0.344-0.875t-0.844-0.406z"></path>
</svg>
