<!-- Generated by IcoMoon.io -->
<svg version="1.1" xmlns="http://www.w3.org/2000/svg" width="32" height="32" viewBox="0 0 32 32">
<title>move</title>
<path d="M28.563 15.438l-3.938-3.969q-0.25-0.219-0.578-0.219t-0.563 0.234-0.234 0.563 0.25 0.578l2.563 2.563h-9.281v-9.25l2.594 2.594q0.219 0.25 0.563 0.25t0.578-0.234 0.234-0.578-0.25-0.563l-3.938-3.969q-0.25-0.219-0.578-0.219t-0.578 0.219l-3.938 3.969q-0.25 0.219-0.25 0.563t0.234 0.578 0.578 0.234 0.563-0.25l2.594-2.594v9.25h-9.281l2.563-2.563q0.25-0.25 0.25-0.578t-0.234-0.563-0.563-0.234-0.578 0.219l-3.938 3.969q-0.25 0.219-0.25 0.563t0.25 0.563l3.938 3.969q0.25 0.219 0.578 0.219t0.563-0.234 0.234-0.563-0.25-0.578l-2.563-2.563h9.281v9.281l-2.594-2.594q-0.219-0.219-0.563-0.219t-0.578 0.234-0.234 0.563 0.25 0.547l3.938 3.969q0.25 0.219 0.578 0.219t0.578-0.219l3.938-3.969q0.25-0.219 0.25-0.547t-0.234-0.563-0.578-0.234-0.563 0.219l-2.594 2.594v-9.281h9.281l-2.563 2.563q-0.25 0.25-0.25 0.578t0.234 0.563 0.563 0.234 0.578-0.219l3.938-3.969q0.25-0.219 0.25-0.563t-0.25-0.563z"></path>
</svg>
