<!-- Generated by IcoMoon.io -->
<svg version="1.1" xmlns="http://www.w3.org/2000/svg" width="32" height="32" viewBox="0 0 32 32">
<title>quxian</title>
<path d="M26.563 25.531q-5.719-3.25-6.688-4.188-1.281-1.313-2.281-2.828t-1.313-2.219-0.5-1.234q-0.031-0.25-0.188-0.469-0.406-1.219-1.344-3.313t-1.969-3.469q-0.75-0.969-2.391-2t-2.781-1.531-2.203-0.906q-0.219-0.125-0.5-0.156h-0.063q-0.5 0-0.844 0.344t-0.344 0.813q0 0.438 0.281 0.766t0.688 0.391q0.156 0.031 0.406 0.094t1 0.344 1.484 0.688 1.75 1.156 1.922 1.719q1.25 1.313 2.813 6 0.063 0.219 0.188 0.406l0.844 1.906q1.813 3.688 3.656 5.094 1.094 0.813 2.891 1.938t3.047 1.844l1.25 0.75v-0.031q0.344 0.375 0.828 0.375t0.813-0.344 0.328-0.844q0-0.375-0.219-0.672t-0.563-0.422z"></path>
</svg>
