<!-- Generated by IcoMoon.io -->
<svg version="1.1" xmlns="http://www.w3.org/2000/svg" width="32" height="32" viewBox="0 0 32 32">
<title>shanchu</title>
<path d="M26.346 7.475h-20.766c-0.673 0-1.224 0.548-1.224 1.223v18.939c0 1.351 1.092 2.441 2.441 2.441h18.332c1.352 0 2.441-1.092 2.441-2.441v-18.939c0-0.675-0.548-1.223-1.224-1.223zM10.465 20.606c0 0.508-0.407 0.919-0.916 0.919-0.506 0-0.916-0.407-0.916-0.919v-7.936c0-0.508 0.407-0.919 0.916-0.919 0.506 0 0.916 0.407 0.916 0.919v7.936zM17.184 24.274c0 0.506-0.407 0.917-0.916 0.917-0.506 0-0.916-0.407-0.916-0.917v-12.827c0-0.506 0.407-0.917 0.916-0.917 0.506 0 0.916 0.407 0.916 0.917v12.827zM23.904 20.606c0 0.508-0.407 0.919-0.916 0.919-0.506 0-0.916-0.407-0.916-0.919v-7.936c0-0.508 0.407-0.919 0.916-0.919 0.506 0 0.916 0.407 0.916 0.919v7.936zM4.356 5.337c0-0.506 0.413-0.916 0.917-0.916h21.38c0.506 0 0.917 0.407 0.917 0.916 0 0.506-0.413 0.916-0.917 0.916h-21.38c-0.506 0-0.917-0.407-0.917-0.916zM12.908 3.199c0-0.675 0.542-1.222 1.221-1.222h3.666c0.674 0 1.221 0.542 1.221 1.222v1.222h-6.109v-1.222z"></path>
</svg>
